<svg xmlns:svg="http://www.w3.org/2000/svg" xmlns="http://www.w3.org/2000/svg" version="1.0" width="800" height="400" id="svg2">
  <defs id="defs4"/>
  <g id="layer1">
    <text x="305.87729" y="616.83569" id="text2402" xml:space="preserve" style="font-size:41.95419693px;font-style:normal;font-variant:normal;font-weight:900;font-stretch:normal;text-align:start;line-height:100%;writing-mode:lr-tb;text-anchor:start;fill:#00ffff;fill-opacity:1;stroke:none;stroke-width:1px;stroke-linecap:butt;stroke-linejoin:miter;stroke-opacity:1;font-family:Cooper Std Black;-inkscape-font-specification:Cooper Std Black Heavy"><tspan x="305.87729" y="616.83569" id="tspan2404"/></text>
    <path d="M 243.40632,113.97488 L 243.40632,183.22389 L 80.513773,249.75238 L 78.715111,347.01576 L 729.81319,347.01576 L 731.61185,249.75238 L 554.55473,183.22389 L 554.55473,113.97488 L 399.37398,47.244018 L 243.40632,113.97488 z" id="path3746" style="fill:#211a6e;fill-opacity:1;fill-rule:evenodd;stroke:#211a6e;stroke-width:5.0362916px;stroke-linecap:butt;stroke-linejoin:miter;stroke-opacity:1"/>
    <path d="M 251.54719,174.91693 C 251.54719,174.91693 263.68853,174.91693 263.68853,174.91693 C 263.68853,174.91693 264.15333,154.30027 264.15333,154.30027 C 264.15333,154.30027 279.55204,151.54506 279.55204,151.54506 C 279.55204,151.54506 279.08724,174.91693 279.08724,174.91693 C 279.08724,174.91693 291.08036,174.91693 291.08036,174.91693 C 291.08036,174.91693 292.15667,114.27736 292.15667,114.27736 C 292.15667,114.27736 279.94145,119.81834 279.94145,119.81834 C 279.94145,119.81834 279.53376,140.996 279.53376,140.996 C 279.53376,140.996 264.28316,145.12112 264.28316,145.12112 C 264.28316,145.12112 264.6908,126.73619 264.6908,126.73619 C 264.6908,126.73619 252.62354,132.21003 252.62354,132.21003 C 252.62354,132.21003 251.54719,174.91693 251.54719,174.91693 C 251.54719,174.91693 251.54719,174.91693 251.54719,174.91693 M 316.9598,126.45547 C 316.848,124.74489 317.15546,122.39395 317.88215,119.38159 C 318.60883,116.34451 320.55289,114.08165 323.71438,112.60269 C 326.72734,111.63824 328.54443,112.30334 329.16566,114.60865 C 329.78678,116.93436 330.01201,119.60359 329.84133,122.59782 C 329.84133,122.59782 329.46743,150.46281 329.46743,150.46281 C 329.5608,153.48691 329.25082,156.61545 328.53753,159.82553 C 327.82414,163.01023 325.92259,164.78895 322.83307,165.17402 C 320.23369,165.21885 318.51204,164.03275 317.66831,161.63487 C 316.82438,159.26484 316.46358,156.11333 316.58586,152.15672 C 316.58586,152.15672 316.9598,126.45547 316.9598,126.45547 C 316.9598,126.45547 316.9598,126.45547 316.9598,126.45547 M 304.49292,148.89255 C 304.45268,150.46443 304.50661,152.51007 304.65458,155.03481 C 304.80255,157.56635 305.14517,160.06707 305.68259,162.54725 C 307.15928,168.19232 309.5769,172.05637 312.9354,174.1145 C 316.2938,176.26414 319.40462,177.35983 322.2679,177.32871 C 324.11088,177.52296 326.40547,177.20205 329.15161,176.33994 C 331.89764,175.44574 334.47552,173.21799 336.88523,169.60626 C 338.60548,166.76192 339.85226,163.26346 340.62569,159.12675 C 341.39911,154.9566 341.81395,149.86173 341.87036,143.86814 C 341.87036,143.86814 342.13144,124.7663 342.13144,124.7663 C 342.20915,117.9193 341.86794,112.52886 341.10771,108.62352 C 340.34743,104.7565 339.22026,101.90878 337.72619,100.08353 C 335.92914,97.890527 333.81541,96.756656 331.38515,96.660715 C 328.95469,96.599625 326.3404,97.248904 323.54213,98.581506 C 320.95288,99.752192 318.46198,101.4393 316.06933,103.61654 C 313.67669,105.76003 311.59273,108.4271 309.81753,111.60007 C 307.92676,115.04781 306.61909,118.50286 305.89426,121.99377 C 305.16949,125.454 304.79862,128.91837 304.78185,132.41118 C 304.78185,132.41118 304.49292,148.89255 304.49292,148.89255 C 304.49292,148.89255 304.49292,148.89255 304.49292,148.89255 M 366.58747,95.642427 C 369.80354,94.399924 372.07028,93.592757 373.38757,93.222942 C 374.70486,92.85484 375.76525,92.819536 376.56864,93.118943 C 377.74472,93.483973 378.61877,94.539933 379.19074,96.288483 C 379.76261,98.047962 380.03014,100.72651 379.99322,104.31628 C 380.02943,107.20736 379.79474,109.98317 379.2892,112.63402 C 378.7835,115.27374 377.61302,117.49152 375.77774,119.27875 C 375.05332,119.99194 374.0998,120.55026 372.91723,120.95564 C 371.73451,121.35975 369.52544,121.94587 366.28982,122.71532 C 366.28982,122.71532 366.58747,95.642427 366.58747,95.642427 C 366.58747,95.642427 366.58747,95.642427 366.58747,95.642427 M 366.11829,138.31891 C 366.11829,138.31891 370.116,137.64837 370.116,137.64837 C 370.116,137.64837 379.96658,174.91693 379.96658,174.91693 C 379.96658,174.91693 392.92219,174.91693 392.92219,174.91693 C 392.92219,174.91693 381.55508,132.00496 381.55508,132.00496 C 385.34619,128.99089 388.06312,124.81041 389.70571,119.46968 C 391.3482,114.05843 392.1815,107.80814 392.20552,100.77375 C 392.21665,91.084785 391.21156,84.348846 389.1904,80.622745 C 387.16908,76.980147 384.64237,75.228424 381.61012,75.331063 C 378.57792,75.468756 375.55096,76.307852 372.52924,77.819495 C 372.52924,77.819495 354.98355,85.778397 354.98355,85.778397 C 354.98355,85.778397 353.90725,174.91693 353.90725,174.91693 C 353.90725,174.91693 365.67832,174.91693 365.67832,174.91693 C 365.67832,174.91693 366.11829,138.31891 366.11829,138.31891 C 366.11829,138.31891 366.11829,138.31891 366.11829,138.31891 M 413.37373,174.91693 C 413.37373,174.91693 423.69616,174.91693 423.69616,174.91693 C 423.69616,174.91693 423.06053,123.28774 423.06053,123.28774 C 423.03631,121.75223 422.96333,119.06118 422.8417,115.21255 C 422.72003,111.3612 422.59402,107.48381 422.46358,103.58038 C 422.33309,99.673777 422.24254,96.879542 422.19192,95.199536 C 422.19192,95.199536 422.5633,95.339696 422.5633,95.339696 C 422.5633,95.339696 435.13252,174.91693 435.13252,174.91693 C 435.13252,174.91693 443.37557,174.91693 443.37557,174.91693 C 443.37557,174.91693 453.67907,107.08156 453.67907,107.08156 C 453.67907,107.08156 453.97616,107.19367 453.97616,107.19367 C 453.91582,111.12212 453.86173,115.16793 453.81399,119.33083 C 453.76614,123.49921 453.7605,127.07906 453.79687,130.06639 C 453.79687,130.06639 454.44066,174.91693 454.44066,174.91693 C 454.44066,174.91693 464.91166,174.91693 464.91166,174.91693 C 464.91166,174.91693 463.71544,97.483494 463.71544,97.483494 C 463.71544,97.483494 447.60052,90.042373 447.60052,90.042373 C 447.60052,90.042373 441.7078,122.90413 441.7078,122.90413 C 441.10204,126.50074 440.58944,129.83406 440.17022,132.89563 C 439.75085,135.97315 439.36663,139.26699 439.01762,142.77668 C 439.01762,142.77668 438.64629,142.71972 438.64629,142.71972 C 438.48528,141.66331 438.19771,139.80214 437.78347,137.12938 C 437.36924,134.44605 437.06228,132.50038 436.86264,131.29867 C 436.55401,129.34353 436.28251,127.72492 436.04792,126.44514 C 435.81328,125.16255 435.52319,123.52817 435.1776,121.53929 C 435.1776,121.53929 428.21815,81.09243 428.21815,81.09243 C 428.21815,81.09243 412.17751,73.685606 412.17751,73.685606 C 412.17751,73.685606 413.37373,174.91693 413.37373,174.91693 C 413.37373,174.91693 413.37373,174.91693 413.37373,174.91693 M 502.46865,151.56546 C 502.46865,151.56546 490.2154,149.59048 490.2154,149.59048 C 490.2154,149.59048 495.61536,122.98904 495.61536,122.98904 C 495.61536,122.98904 495.9123,123.10094 495.9123,123.10094 C 495.9123,123.10094 502.46865,151.56546 502.46865,151.56546 C 502.46865,151.56546 502.46865,151.56546 502.46865,151.56546 M 488.27265,108.82291 C 488.27265,108.82291 474.0966,174.91693 474.0966,174.91693 C 474.0966,174.91693 485.75581,174.91693 485.75581,174.91693 C 485.75581,174.91693 488.33978,160.28232 488.33978,160.28232 C 488.33978,160.28232 505.04874,161.61956 505.04874,161.61956 C 505.04874,161.61956 508.0344,174.91693 508.0344,174.91693 C 508.0344,174.91693 519.69357,174.91693 519.69357,174.91693 C 519.69357,174.91693 502.75375,115.50964 502.75375,115.50964 C 502.75375,115.50964 488.27265,108.82291 488.27265,108.82291 C 488.27265,108.82291 488.27265,108.82291 488.27265,108.82291 M 527.34082,174.91693 C 527.34082,174.91693 549.79417,174.91693 549.79417,174.91693 C 549.79417,174.91693 549.57092,164.85558 549.57092,164.85558 C 549.57092,164.85558 539.29658,164.85558 539.29658,164.85558 C 539.29658,164.85558 538.32362,131.9342 538.32362,131.9342 C 538.32362,131.9342 526.1446,126.31047 526.1446,126.31047 C 526.1446,126.31047 526.1446,174.91693 526.1446,174.91693" id="text3224" style="font-size:14.73676109px;font-style:normal;font-variant:normal;font-weight:bold;font-stretch:normal;text-align:start;line-height:100%;writing-mode:lr-tb;text-anchor:start;fill:#ffffff;fill-opacity:1;stroke:none;stroke-width:1px;stroke-linecap:butt;stroke-linejoin:miter;stroke-opacity:1;font-family:Bell Gothic Std Black;-inkscape-font-specification:Bell Gothic Std Black Bold"/>
    <path d="M 242.17354,182.61913 L 256.95309,231.67471 L 268.99265,231.67471 L 276.05026,207.68158 C 276.30973,206.80441 276.72482,205.28396 277.29568,203.12026 C 277.86655,200.95652 278.28164,199.40263 278.54121,198.45857 L 278.87335,198.45857 C 279.04801,199.34697 279.34213,200.6279 279.75551,202.30152 C 280.16899,203.97518 280.6498,205.72398 281.1982,207.54792 L 288.50496,231.67471 L 300.54446,231.67471 L 314.99192,182.61913 L 303.03546,182.61913 L 296.55894,206.14446 C 296.53996,206.25465 296.37492,206.89572 296.06382,208.0677 C 295.75268,209.23979 295.40931,210.54923 295.0336,211.996 C 294.65799,213.44288 294.36367,214.63351 294.15104,215.56789 L 293.81895,215.56789 C 293.73328,215.32575 293.47089,214.43629 293.03168,212.89951 C 292.59241,211.36279 292.15778,209.82974 291.72773,208.30042 C 291.29768,206.77112 291.05382,205.89652 290.99596,205.67659 L 284.43644,182.61913 L 272.97812,182.61913 L 266.33565,205.74347 C 266.21101,206.22383 265.96191,207.05084 265.58837,208.22458 C 265.21468,209.39839 264.96558,210.24217 264.84103,210.75587 C 264.6905,211.26972 264.47258,212.09673 264.18717,213.2371 C 263.90176,214.37746 263.70449,215.15436 263.59556,215.56789 L 263.09737,215.56789 L 262.01794,210.75587 C 261.90216,210.27833 261.67723,209.4624 261.34343,208.30813 C 261.00947,207.15393 260.76385,206.32128 260.60652,205.81025 L 254.29605,182.61913 L 242.17354,182.61913 z M 328.38941,231.67471 L 371.23355,231.67471 L 371.23355,222.51858 L 341.84039,222.51858 L 341.84039,210.95641 L 360.68856,210.95641 L 360.68856,202.00075 L 341.67434,202.00075 L 341.67434,191.57477 L 369.32379,191.57477 L 369.32379,182.61913 L 328.38941,182.61913 L 328.38941,231.67471 z M 390.56863,190.23814 C 394.17532,190.22565 396.71819,190.25068 398.19705,190.31333 C 399.67606,190.37603 400.86961,190.55144 401.77787,190.83967 C 403.10634,191.22253 404.10267,191.877 404.76701,192.80282 C 405.43114,193.72884 405.76334,195.0348 405.76339,196.72095 C 405.83767,198.0883 405.60585,199.36364 405.06803,200.54717 C 404.52995,201.73065 403.2395,202.63854 401.19666,203.2706 C 400.39045,203.52684 399.32493,203.68277 397.99998,203.73842 C 396.67488,203.79417 394.19783,203.81643 390.56863,203.8053 L 390.56863,190.23814 z M 390.56863,211.62473 L 395.05224,211.62473 L 406.59362,231.67471 L 421.12418,231.67471 L 407.83909,209.88706 C 412.06495,208.82611 415.07146,207.17201 416.85834,204.92472 C 418.64526,202.67747 419.51362,199.98744 419.46356,196.85461 C 419.36963,192.53398 418.1642,189.35326 415.847,187.3123 C 413.52985,185.2715 410.66365,183.96201 407.24869,183.38405 C 403.83363,182.80608 400.43236,182.55114 397.04505,182.61913 L 377.36664,182.61913 L 377.36664,231.67471 L 390.56863,231.67471 L 390.56863,211.62473 z M 459.16978,231.67471 C 464.31083,231.67748 468.76684,231.67189 472.53786,231.65799 C 476.30879,231.64404 478.68894,231.60506 479.67852,231.541 C 482.0899,231.40456 484.3247,231.17622 486.38323,230.85596 C 488.44167,230.53575 490.55207,229.93981 492.71441,229.06818 C 496.00613,227.62573 498.24451,225.61514 499.42955,223.03646 C 500.61438,220.45783 501.17135,217.74559 501.10054,214.89958 L 501.18354,206.5454 C 501.19733,201.18487 500.92054,197.26955 500.35325,194.79951 C 499.78581,192.32946 498.84478,190.38575 497.53021,188.96829 C 495.95078,186.92023 493.4426,185.35238 490.00544,184.26489 C 486.56832,183.17751 481.2163,182.62895 473.94928,182.61913 L 459.16978,182.61913 L 459.16978,231.67471 z M 472.78691,191.30749 C 476.27585,191.24484 478.95017,191.37014 480.80972,191.6834 C 482.66932,191.99671 484.20192,192.87388 485.4076,194.31496 C 486.40922,195.51521 487.04223,197.14148 487.30694,199.19377 C 487.5716,201.24616 487.68572,203.74124 487.64951,206.67911 C 487.64261,207.55633 487.61486,208.55878 487.56646,209.68656 C 487.51796,210.81439 487.49031,211.81691 487.48341,212.69403 C 487.36743,217.24291 486.22927,220.12508 484.06871,221.34064 C 481.90824,222.55615 479.42066,223.08249 476.60633,222.91957 L 472.78691,222.91957 L 472.78691,191.30749 z M 544.79581,213.56289 L 531.09563,213.56289 L 537.7381,191.37427 L 538.07024,191.37427 L 544.79581,213.56289 z M 529.76711,182.61913 L 512.57971,231.67471 L 525.61559,231.67471 L 528.77073,221.91704 L 547.4528,221.91704 L 550.52484,231.67471 L 563.56088,231.67471 L 545.95818,182.61913 L 529.76711,182.61913 z" id="text3232" style="font-size:14.47333241px;font-style:normal;font-variant:normal;font-weight:bold;font-stretch:normal;text-align:start;line-height:100%;writing-mode:lr-tb;text-anchor:start;fill:#ffffff;fill-opacity:1;stroke:none;stroke-width:1px;stroke-linecap:butt;stroke-linejoin:miter;stroke-opacity:1;font-family:Bell Gothic Std Black;-inkscape-font-specification:Bell Gothic Std Black Bold"/>
    <path d="M 398.11491,45.939971 C 397.84345,46.0204 397.58,46.12576 397.32799,46.254739 L 339.41063,70.964045 C 337.69336,71.697681 336.59237,73.399293 336.62697,75.266397 C 336.66152,77.133552 337.82475,78.793212 339.56802,79.462787 C 342.2783,80.503536 343.07821,80.791008 346.17815,81.980932 C 347.24156,82.391692 348.4198,82.391692 349.48322,81.980932 L 399.05921,60.891461 L 553.29566,126.67802 C 553.84703,126.89373 554.43492,127.0006 555.02688,126.99279 L 567.77499,126.99279 C 569.94941,126.97063 571.80937,125.42454 572.22849,123.29081 C 572.64761,121.15704 571.51071,119.0223 569.50622,118.17928 L 400.79044,46.254739 C 399.95023,45.88432 399.01817,45.77468 398.11491,45.939971 z M 296.44477,89.220602 C 296.11953,89.290959 295.80289,89.396519 295.50047,89.53537 L 228.45483,118.17928 C 226.45034,119.0223 225.31345,121.15704 225.73257,123.29081 C 226.15169,125.42454 228.01164,126.97063 230.18606,126.99279 L 242.93417,126.99279 C 243.52614,127.0006 244.11402,126.89373 244.6654,126.67802 L 290.93633,107.00501 C 291.58918,106.77324 292.1811,106.39657 292.66755,105.90332 C 296.53326,101.64987 297.37543,100.38128 300.53676,96.932423 C 301.92441,95.504785 302.23243,93.344921 301.2993,91.586299 C 300.36613,89.827626 298.40489,88.871889 296.44477,89.220602 z M 236.32404,170.11604 C 235.94511,170.17451 235.57499,170.28022 235.22235,170.4308 L 58.479997,243.77178 C 56.475502,244.61481 55.33861,246.74954 55.75773,248.88331 C 56.17685,251.01704 58.036803,252.56313 60.211222,252.58529 L 72.959335,252.58529 C 73.551301,252.5931 74.139187,252.48623 74.69056,252.27052 L 238.6848,184.28061 C 240.40339,183.56958 241.5224,181.89109 241.51771,180.03124 L 241.51771,174.68018 C 241.523,173.35472 240.95461,172.09177 239.95898,171.21682 C 238.96331,170.34186 237.63781,169.94047 236.32404,170.11604 z M 558.33195,170.11604 C 556.06471,170.44143 554.38511,172.38972 554.39734,174.68018 L 554.39734,180.03124 C 554.41819,181.93017 555.60721,183.6199 557.38764,184.28061 L 726.57556,249.12284 C 727.07758,249.31946 727.61037,249.42602 728.1494,249.43761 L 740.89752,249.43761 C 743.04424,249.34635 744.83977,247.77694 745.2175,245.66175 C 745.59522,243.54656 744.45379,241.45272 742.47136,240.6241 L 560.53532,170.4308 C 559.83785,170.14656 559.0811,170.03843 558.33195,170.11604 L 558.33195,170.11604 z" id="path3805" style="fill:#211a6e;fill-opacity:1;fill-rule:evenodd;stroke:none;stroke-width:1px;stroke-linecap:butt;stroke-linejoin:miter;stroke-opacity:1"/>
    <path d="M 399.05921,50.50411 L 341.14186,75.213416 C 343.83396,76.247165 344.63644,76.535644 347.75199,77.731561 L 399.05921,55.85517 L 555.02688,122.42865 L 567.77499,122.42865 L 399.05921,50.50411 z M 297.23169,93.784741 L 230.18606,122.42865 L 242.93417,122.42865 L 289.2051,102.75563 C 293.02966,98.547461 294.01798,97.290755 297.23169,93.784741 z M 60.155017,248.00992 L 72.90313,248.00992 L 236.98596,179.95494 L 236.98596,174.60388 L 60.155017,248.00992 z M 740.89243,244.83026 L 728.14432,244.83026 L 558.97407,179.95494 L 558.97407,174.60388 L 740.89243,244.83026 z" id="path3751" style="fill:#ffffff;fill-opacity:1;fill-rule:evenodd;stroke:none;stroke-width:1px;stroke-linecap:butt;stroke-linejoin:miter;stroke-opacity:1"/>
    <path d="M 306.83343,52.368545 L 306.83343,98.408711 L 318.52745,98.408711 L 318.52745,52.368545 L 306.83343,52.368545 z" id="path3772" style="fill:#ffffff;fill-opacity:1;fill-rule:evenodd;stroke:#211a6e;stroke-width:4.25423288;stroke-linecap:butt;stroke-linejoin:miter;stroke-miterlimit:4;stroke-dasharray:none;stroke-opacity:1"/>
    <path d="M 321.24896,52.36084 L 321.24896,89.987478 L 332.9535,89.987478 L 332.9535,52.36084 L 321.24896,52.36084 z" id="path3774" style="fill:#ffffff;fill-opacity:1;fill-rule:evenodd;stroke:#211a6e;stroke-width:4.24150085;stroke-linecap:butt;stroke-linejoin:miter;stroke-miterlimit:4;stroke-dasharray:none;stroke-opacity:1"/>
    <path d="M 97.977013,339.60123 L 119.01456,339.60123 L 119.01456,296.0507 L 145.69622,296.0507 L 145.69622,339.60123 L 166.47717,339.60123 L 166.47717,238.76188 L 145.3114,238.76188 L 145.3114,276.95444 L 118.88629,276.95444 L 118.88629,238.76188 L 97.977013,238.76188 L 97.977013,339.60123 z M 228.25842,302.37034 L 207.09265,302.37034 L 217.3548,256.75902 L 217.86794,256.75902 L 228.25842,302.37034 z M 205.04021,238.76188 L 178.48676,339.60123 L 198.62634,339.60123 L 203.50087,319.54329 L 232.3633,319.54329 L 237.1096,339.60123 L 257.24913,339.60123 L 230.05436,238.76188 L 205.04021,238.76188 z M 197.21532,231.29548 L 213.50652,231.29548 L 213.50652,215.35894 L 197.21532,215.35894 L 197.21532,231.29548 z M 222.22937,231.29548 L 238.52062,231.29548 L 238.52062,215.35894 L 222.22937,215.35894 L 222.22937,231.29548 z M 272.4623,339.60123 L 290.29289,339.60123 L 290.29289,286.02168 C 290.28413,284.40453 290.21609,281.57877 290.08852,277.5447 C 289.96105,273.51053 289.82648,269.45354 289.68471,265.37349 C 289.54294,261.29359 289.44639,258.37632 289.39492,256.62168 L 290.03629,256.62168 L 310.04759,339.60123 L 324.28635,339.60123 L 343.78455,256.62168 L 344.2977,256.62168 C 344.09182,261.57905 343.89404,266.67361 343.70442,271.90566 C 343.51456,277.13767 343.41302,281.61402 343.39973,285.33478 L 343.39973,339.60123 L 361.48686,339.60123 L 361.48686,238.76188 L 333.65068,238.76188 L 322.61878,280.38894 C 321.48295,284.75672 320.51552,288.76369 319.71647,292.41007 C 318.91741,296.05639 318.1744,299.92613 317.48766,304.01897 L 316.84623,304.01897 C 316.59235,302.83972 316.13798,300.76759 315.48336,297.80233 C 314.82849,294.83721 314.34214,292.69633 314.02415,291.37964 C 313.53512,289.23887 313.1021,287.47576 312.72539,286.09043 C 312.34847,284.70515 311.88347,282.94209 311.33034,280.80116 L 300.17022,238.76188 L 272.4623,238.76188 L 272.4623,339.60123 z M 390.10378,339.60123 L 407.93438,339.60123 L 407.93438,286.02168 C 407.92567,284.40453 407.85758,281.57877 407.73006,277.5447 C 407.60259,273.51053 407.46797,269.45354 407.3263,265.37349 C 407.18448,261.29359 407.08788,258.37632 407.03651,256.62168 L 407.67783,256.62168 L 427.68913,339.60123 L 441.92794,339.60123 L 461.42609,256.62168 L 461.93919,256.62168 C 461.73336,261.57905 461.53558,266.67361 461.34591,271.90566 C 461.1561,277.13767 461.05457,281.61402 461.04127,285.33478 L 461.04127,339.60123 L 479.12841,339.60123 L 479.12841,238.76188 L 451.29222,238.76188 L 440.26032,280.38894 C 439.12444,284.75672 438.15707,288.76369 437.35806,292.41007 C 436.5589,296.05639 435.816,299.92613 435.12925,304.01897 L 434.48782,304.01897 C 434.2339,302.83972 433.77957,300.76759 433.1249,297.80233 C 432.47009,294.83721 431.98368,292.69633 431.66574,291.37964 C 431.17661,289.23887 430.74364,287.47576 430.36693,286.09043 C 429.99006,284.70515 429.52506,282.94209 428.97188,280.80116 L 417.81181,238.76188 L 390.10378,238.76188 L 390.10378,339.60123 z M 499.17562,339.60123 L 565.36684,339.60123 L 565.36684,320.7797 L 519.95656,320.7797 L 519.95656,297.01233 L 549.0755,297.01233 L 549.0755,278.60297 L 519.69996,278.60297 L 519.69996,257.17119 L 562.41638,257.17119 L 562.41638,238.76188 L 499.17562,238.76188 L 499.17562,339.60123 z M 598.6256,254.42354 C 604.19756,254.39785 608.12601,254.44942 610.41103,254.5781 C 612.69594,254.70693 614.53988,255.06758 615.94299,255.65995 C 617.99543,256.44712 619.53473,257.79231 620.56102,259.69558 C 621.58722,261.59909 622.10026,264.28374 622.10031,267.74967 C 622.21519,270.56042 621.85706,273.18216 621.02602,275.61494 C 620.19483,278.04777 618.20117,279.91402 615.04502,281.21333 C 613.7996,281.74003 612.15344,282.06059 610.10638,282.17496 C 608.05928,282.28954 604.23231,282.33527 598.6256,282.3123 L 598.6256,254.42354 z M 598.6256,298.38623 L 605.55257,298.38623 L 623.38311,339.60123 L 645.83167,339.60123 L 625.30727,294.81424 C 631.83597,292.63328 636.48069,289.23313 639.24143,284.61354 C 642.00192,279.9941 643.34354,274.46445 643.26613,268.0245 C 643.12114,259.14295 641.25877,252.60458 637.67892,248.4092 C 634.09898,244.21402 629.67102,241.52227 624.39505,240.33411 C 619.11903,239.14605 613.86441,238.62202 608.63115,238.76188 L 578.22948,238.76188 L 578.22948,339.60123 L 598.6256,339.60123 L 598.6256,298.38623 z M 657.63029,238.76188 L 657.63029,257.17119 L 681.61815,257.17119 L 681.61815,339.60123 L 703.16879,339.60123 L 703.16879,257.17119 L 726.6435,257.17119 L 726.6435,238.76188 L 657.63029,238.76188 z" id="text3236" style="font-size:18.01987267px;font-style:normal;font-variant:normal;font-weight:bold;font-stretch:normal;text-align:start;line-height:100%;writing-mode:lr-tb;text-anchor:start;fill:#ffffff;fill-opacity:1;stroke:none;stroke-width:1px;stroke-linecap:butt;stroke-linejoin:miter;stroke-opacity:1;font-family:Bell Gothic Std Black;-inkscape-font-specification:Bell Gothic Std Black Bold"/>
  </g>
</svg>